<svg width="24" height="24" viewBox="0 0 24 24" fill="none" xmlns="http://www.w3.org/2000/svg">
<path d="M14.1619 3.75626H18.641C19.5471 3.75626 20.285 4.50797 20.285 5.43112V21.3251C20.285 22.2483 19.5471 23 18.641 23H5.64403C4.73787 23 4 22.2483 4 21.3251V5.43112C4 4.50797 4.73787 3.75626 5.64403 3.75626H9.90299L9.92888 3.13643C9.92888 1.96271 10.8739 1 12.026 1C13.1781 1 14.1231 1.96271 14.1231 3.13643L14.1619 3.75626Z" stroke="#2A2E37" stroke-miterlimit="10" stroke-linecap="round" stroke-linejoin="round"/>
<path d="M8.05182 4.05954V7.06638H15.8059V3.90332" stroke="#2A2E37" stroke-miterlimit="10" stroke-linecap="round" stroke-linejoin="round"/>
<path d="M7.90924 10.1248H16.1812" stroke="#2A2E37" stroke-miterlimit="10" stroke-linecap="round" stroke-linejoin="round"/>
<path d="M7.90924 12.1426H16.1812" stroke="#2A2E37" stroke-miterlimit="10" stroke-linecap="round" stroke-linejoin="round"/>
<path d="M7.90924 14.147H16.1812" stroke="#2A2E37" stroke-miterlimit="10" stroke-linecap="round" stroke-linejoin="round"/>
<path d="M7.90924 16.165H16.1812" stroke="#2A2E37" stroke-miterlimit="10" stroke-linecap="round" stroke-linejoin="round"/>
<path d="M7.90924 18.1697H10.6407" stroke="#2A2E37" stroke-miterlimit="10" stroke-linecap="round" stroke-linejoin="round"/>
<path d="M12.2849 19.3694L13.6442 20.7673L15.9095 18.4595" stroke="#2A2E37" stroke-miterlimit="10" stroke-linecap="round" stroke-linejoin="round"/>
</svg>
