<svg width="20" height="22" viewBox="0 0 20 22" fill="none" xmlns="http://www.w3.org/2000/svg">
<path d="M14.9579 14.0638V19.3975C14.9579 20.2808 14.3234 21 13.5522 21H2.41818C1.64689 21 1.01244 20.2808 1.01244 19.3975L1 2.60253C1 1.71924 1.63445 1 2.40574 1H13.5397C14.311 1 14.9455 1.71924 14.9455 2.60253V5.90852" stroke="#2A2E37" stroke-miterlimit="10" stroke-linecap="round" stroke-linejoin="round"/>
<path d="M3.71191 7.15746L12.0966 7.14502" stroke="#2A2E37" stroke-miterlimit="10" stroke-linecap="round" stroke-linejoin="round"/>
<path d="M5.70239 4.5454L10.0938 4.53296" stroke="#2A2E37" stroke-miterlimit="10" stroke-linecap="round" stroke-linejoin="round"/>
<path d="M3.71198 9.08825L11.4 9.08808" stroke="#2A2E37" stroke-miterlimit="10" stroke-linecap="round" stroke-linejoin="round"/>
<path d="M3.71198 11.0064L10.2 11.0063" stroke="#2A2E37" stroke-miterlimit="10" stroke-linecap="round" stroke-linejoin="round"/>
<path d="M3.71198 12.9368H8.20001" stroke="#2A2E37" stroke-miterlimit="10" stroke-linecap="round" stroke-linejoin="round"/>
<path d="M3.71198 17.0505H6.48614" stroke="#2A2E37" stroke-miterlimit="10" stroke-linecap="round" stroke-linejoin="round"/>
<path d="M11.2009 14.8676L9.77026 13.5932L16.5751 5.78247L18.0057 7.06953L17.2344 7.95282L11.2009 14.8676Z" stroke="#2A2E37" stroke-miterlimit="10" stroke-linecap="round" stroke-linejoin="round"/>
<path d="M18.7574 6.27656C19.1122 5.86926 19.0619 5.23606 18.6449 4.86226C18.2279 4.48846 17.6022 4.51561 17.2473 4.92291C16.8924 5.33021 16.9428 5.96342 17.3598 6.33722C17.7768 6.71102 18.4025 6.68386 18.7574 6.27656Z" stroke="#2A2E37" stroke-miterlimit="10" stroke-linecap="round" stroke-linejoin="round"/>
<path d="M9.74535 13.5425L8.35205 16.8359L11.1884 14.9557" stroke="#2A2E37" stroke-miterlimit="10" stroke-linecap="round" stroke-linejoin="round"/>
<path d="M15.2192 12.4196L18.3791 8.79818L17.3216 7.85181" stroke="#2A2E37" stroke-miterlimit="10" stroke-linecap="round" stroke-linejoin="round"/>
</svg>
