<svg width="82" height="23" viewBox="0 0 82 23" fill="none" xmlns="http://www.w3.org/2000/svg">
<path d="M2.26 22C1.64 22 1.16 21.83 0.82 21.49C0.48 21.13 0.31 20.64 0.31 20.02V2.71C0.31 2.07 0.47 1.59 0.79 1.27C1.13 0.929999 1.61 0.76 2.23 0.76C2.85 0.76 3.32 0.929999 3.64 1.27C3.98 1.59 4.15 2.07 4.15 2.71V18.73H12.85C13.39 18.73 13.8 18.87 14.08 19.15C14.38 19.43 14.53 19.83 14.53 20.35C14.53 20.87 14.38 21.28 14.08 21.58C13.8 21.86 13.39 22 12.85 22H2.26ZM25.4931 22.3C23.4531 22.3 21.6631 21.85 20.1231 20.95C18.6031 20.05 17.4231 18.79 16.5831 17.17C15.7431 15.53 15.3231 13.61 15.3231 11.41C15.3231 9.75 15.5631 8.26 16.0431 6.94C16.5231 5.6 17.2031 4.46 18.0831 3.52C18.9831 2.56 20.0531 1.83 21.2931 1.33C22.5531 0.809999 23.9531 0.549999 25.4931 0.549999C27.5531 0.549999 29.3431 0.999999 30.8631 1.9C32.3831 2.78 33.5631 4.03 34.4031 5.65C35.2431 7.27 35.6631 9.18 35.6631 11.38C35.6631 13.04 35.4231 14.54 34.9431 15.88C34.4631 17.22 33.7731 18.37 32.8731 19.33C31.9931 20.29 30.9231 21.03 29.6631 21.55C28.4231 22.05 27.0331 22.3 25.4931 22.3ZM25.4931 19C26.7931 19 27.8931 18.7 28.7931 18.1C29.7131 17.5 30.4131 16.63 30.8931 15.49C31.3931 14.35 31.6431 12.99 31.6431 11.41C31.6431 9.01 31.1031 7.15 30.0231 5.83C28.9631 4.51 27.4531 3.85 25.4931 3.85C24.2131 3.85 23.1131 4.15 22.1931 4.75C21.2731 5.33 20.5631 6.19 20.0631 7.33C19.5831 8.45 19.3431 9.81 19.3431 11.41C19.3431 13.79 19.8831 15.65 20.9631 16.99C22.0431 18.33 23.5531 19 25.4931 19ZM49.7378 22.3C47.3978 22.3 45.4178 21.86 43.7978 20.98C42.1978 20.1 40.9778 18.85 40.1378 17.23C39.2978 15.61 38.8778 13.69 38.8778 11.47C38.8778 9.79 39.1178 8.28 39.5978 6.94C40.0978 5.6 40.8078 4.46 41.7278 3.52C42.6678 2.56 43.8078 1.83 45.1478 1.33C46.4878 0.809999 48.0078 0.549999 49.7078 0.549999C50.8278 0.549999 51.9478 0.689999 53.0678 0.969999C54.2078 1.23 55.2778 1.68 56.2778 2.32C56.6178 2.54 56.8378 2.81 56.9378 3.13C57.0578 3.45 57.0778 3.78 56.9978 4.12C56.9178 4.44 56.7678 4.72 56.5478 4.96C56.3278 5.2 56.0478 5.35 55.7078 5.41C55.3878 5.47 55.0278 5.39 54.6278 5.17C53.8678 4.73 53.0978 4.41 52.3178 4.21C51.5378 4.01 50.6678 3.91 49.7078 3.91C48.2278 3.91 46.9778 4.21 45.9578 4.81C44.9378 5.39 44.1678 6.24 43.6478 7.36C43.1478 8.48 42.8978 9.85 42.8978 11.47C42.8978 13.93 43.4878 15.8 44.6678 17.08C45.8478 18.36 47.5978 19 49.9178 19C50.7178 19 51.5278 18.92 52.3478 18.76C53.1678 18.6 53.9678 18.38 54.7478 18.1L53.9978 19.81V13.42H50.6978C50.1978 13.42 49.8078 13.29 49.5278 13.03C49.2678 12.77 49.1378 12.42 49.1378 11.98C49.1378 11.52 49.2678 11.17 49.5278 10.93C49.8078 10.69 50.1978 10.57 50.6978 10.57H55.6478C56.1478 10.57 56.5278 10.71 56.7878 10.99C57.0678 11.25 57.2078 11.63 57.2078 12.13V19.42C57.2078 19.86 57.1178 20.23 56.9378 20.53C56.7778 20.83 56.5078 21.05 56.1278 21.19C55.2478 21.51 54.2378 21.78 53.0978 22C51.9578 22.2 50.8378 22.3 49.7378 22.3ZM71.1377 22.3C69.0977 22.3 67.3077 21.85 65.7677 20.95C64.2477 20.05 63.0677 18.79 62.2277 17.17C61.3877 15.53 60.9677 13.61 60.9677 11.41C60.9677 9.75 61.2077 8.26 61.6877 6.94C62.1677 5.6 62.8477 4.46 63.7277 3.52C64.6277 2.56 65.6977 1.83 66.9377 1.33C68.1977 0.809999 69.5977 0.549999 71.1377 0.549999C73.1977 0.549999 74.9877 0.999999 76.5077 1.9C78.0277 2.78 79.2077 4.03 80.0477 5.65C80.8877 7.27 81.3077 9.18 81.3077 11.38C81.3077 13.04 81.0677 14.54 80.5877 15.88C80.1077 17.22 79.4177 18.37 78.5177 19.33C77.6377 20.29 76.5677 21.03 75.3077 21.55C74.0677 22.05 72.6777 22.3 71.1377 22.3ZM71.1377 19C72.4377 19 73.5377 18.7 74.4377 18.1C75.3577 17.5 76.0577 16.63 76.5377 15.49C77.0377 14.35 77.2877 12.99 77.2877 11.41C77.2877 9.01 76.7477 7.15 75.6677 5.83C74.6077 4.51 73.0977 3.85 71.1377 3.85C69.8577 3.85 68.7577 4.15 67.8377 4.75C66.9177 5.33 66.2077 6.19 65.7077 7.33C65.2277 8.45 64.9877 9.81 64.9877 11.41C64.9877 13.79 65.5277 15.65 66.6077 16.99C67.6877 18.33 69.1977 19 71.1377 19Z" fill="black"/>
</svg>
