<svg width="22" height="19" viewBox="0 0 22 19" fill="none" xmlns="http://www.w3.org/2000/svg">
<path d="M6.09229 9.95706L6.86322 4.70117H8.64955H15.5128L16.3966 10.1736" stroke="#2A2E37" stroke-miterlimit="10" stroke-linejoin="round"/>
<path d="M8.66852 4.64171L8.81895 2.88976H9.96595V1H12.2976V2.87007H13.4822L13.7642 4.50392" stroke="#2A2E37" stroke-miterlimit="10" stroke-linejoin="round"/>
<path d="M5.18975 16.8071C5.11454 16.5906 3.96753 11.0197 3.96753 11.0197L11.2068 7.77173L18.3145 11.0591L17.1863 16.8071" stroke="#2A2E37" stroke-miterlimit="10" stroke-linejoin="round"/>
<path d="M11.2068 7.75171V14.4446" stroke="#2A2E37" stroke-miterlimit="10" stroke-linejoin="round"/>
<path d="M22 18.0079C20.1761 18.0079 20.1761 16.4331 18.3333 16.4331C16.5094 16.4331 16.5094 18.0079 14.6667 18.0079C12.8427 18.0079 12.8427 16.4331 11 16.4331C9.17607 16.4331 9.17607 18.0079 7.33333 18.0079C5.5094 18.0079 5.5094 16.4331 3.66667 16.4331C1.84274 16.4331 1.84274 18.0079 0 18.0079" stroke="#2A2E37" stroke-miterlimit="10" stroke-linejoin="round"/>
</svg>
