<svg width="16" height="18" viewBox="0 0 16 18" fill="none" xmlns="http://www.w3.org/2000/svg">
<path d="M14.8937 15.1455L14.3987 15.2159L14.8937 15.1455ZM2.87011 17.5H13.1299V16.5H2.87011V17.5ZM15.3887 15.075C15.2142 13.8484 14.7717 12.2084 13.6578 10.8671C12.5259 9.50423 10.7418 8.5 8 8.5V9.5C10.4645 9.5 11.9591 10.3869 12.8885 11.506C13.8358 12.6466 14.237 14.0793 14.3987 15.2159L15.3887 15.075ZM8 8.5C5.25823 8.5 3.47407 9.50423 2.34222 10.8671C1.22827 12.2084 0.785756 13.8484 0.61126 15.075L1.60129 15.2159C1.76298 14.0793 2.1642 12.6466 3.11151 11.506C4.04091 10.3869 5.53552 9.5 8 9.5V8.5ZM13.1299 17.5C14.4173 17.5 15.5879 16.475 15.3887 15.075L14.3987 15.2159C14.4948 15.8916 13.939 16.5 13.1299 16.5V17.5ZM2.87011 16.5C2.06096 16.5 1.50517 15.8916 1.60129 15.2159L0.61126 15.075C0.41211 16.475 1.58274 17.5 2.87011 17.5V16.5Z" fill="#2A2E37"/>
<circle cx="8" cy="5" r="4" stroke="#2A2E37"/>
</svg>
